<mxfile host="app.diagrams.net" agent="Mozilla/5.0 (Macintosh; Intel Mac OS X 10_15_7) AppleWebKit/537.36 (KHTML, like Gecko) Chrome/130.0.0.0 Safari/537.36" version="24.8.1">
  <diagram name="Page-1" id="6hviZvHizFEPVtEqHuhx">
    <mxGraphModel dx="1590" dy="1077" grid="1" gridSize="10" guides="1" tooltips="1" connect="1" arrows="1" fold="1" page="1" pageScale="1" pageWidth="827" pageHeight="1169" math="0" shadow="0">
      <root>
        <mxCell id="0" />
        <mxCell id="1" parent="0" />
        <mxCell id="yP08N5uRldZZ6fUsD1WO-1" value="start" style="ellipse;whiteSpace=wrap;html=1;" vertex="1" parent="1">
          <mxGeometry x="294" y="20" width="120" height="80" as="geometry" />
        </mxCell>
        <mxCell id="yP08N5uRldZZ6fUsD1WO-2" value="" style="endArrow=none;html=1;rounded=0;" edge="1" parent="1">
          <mxGeometry width="50" height="50" relative="1" as="geometry">
            <mxPoint x="360" y="180" as="sourcePoint" />
            <mxPoint x="360" y="100" as="targetPoint" />
          </mxGeometry>
        </mxCell>
        <mxCell id="yP08N5uRldZZ6fUsD1WO-3" value="input number" style="shape=parallelogram;perimeter=parallelogramPerimeter;whiteSpace=wrap;html=1;fixedSize=1;" vertex="1" parent="1">
          <mxGeometry x="260" y="180" width="190" height="60" as="geometry" />
        </mxCell>
        <mxCell id="yP08N5uRldZZ6fUsD1WO-4" value="" style="endArrow=none;html=1;rounded=0;" edge="1" parent="1">
          <mxGeometry width="50" height="50" relative="1" as="geometry">
            <mxPoint x="354.5" y="320" as="sourcePoint" />
            <mxPoint x="354.5" y="240" as="targetPoint" />
          </mxGeometry>
        </mxCell>
        <mxCell id="yP08N5uRldZZ6fUsD1WO-5" value="if num &amp;gt; 0" style="rhombus;whiteSpace=wrap;html=1;" vertex="1" parent="1">
          <mxGeometry x="291.5" y="320" width="125" height="120" as="geometry" />
        </mxCell>
        <mxCell id="yP08N5uRldZZ6fUsD1WO-6" value="" style="edgeStyle=segmentEdgeStyle;endArrow=classic;html=1;curved=0;rounded=0;endSize=8;startSize=8;exitX=0;exitY=0.5;exitDx=0;exitDy=0;" edge="1" parent="1" source="yP08N5uRldZZ6fUsD1WO-5">
          <mxGeometry width="50" height="50" relative="1" as="geometry">
            <mxPoint x="150" y="530" as="sourcePoint" />
            <mxPoint x="200" y="510" as="targetPoint" />
          </mxGeometry>
        </mxCell>
        <mxCell id="yP08N5uRldZZ6fUsD1WO-7" value="print(number is positive)" style="shape=parallelogram;perimeter=parallelogramPerimeter;whiteSpace=wrap;html=1;fixedSize=1;" vertex="1" parent="1">
          <mxGeometry x="120" y="510" width="170" height="70" as="geometry" />
        </mxCell>
        <mxCell id="yP08N5uRldZZ6fUsD1WO-8" value="" style="edgeStyle=segmentEdgeStyle;endArrow=classic;html=1;curved=0;rounded=0;endSize=8;startSize=8;exitX=1;exitY=0.5;exitDx=0;exitDy=0;" edge="1" parent="1">
          <mxGeometry width="50" height="50" relative="1" as="geometry">
            <mxPoint x="410" y="380" as="sourcePoint" />
            <mxPoint x="553.5" y="500" as="targetPoint" />
            <Array as="points">
              <mxPoint x="553.5" y="380" />
            </Array>
          </mxGeometry>
        </mxCell>
        <mxCell id="yP08N5uRldZZ6fUsD1WO-9" value="Yes" style="text;html=1;align=center;verticalAlign=middle;resizable=0;points=[];autosize=1;strokeColor=none;fillColor=none;" vertex="1" parent="1">
          <mxGeometry x="220" y="348" width="40" height="30" as="geometry" />
        </mxCell>
        <mxCell id="yP08N5uRldZZ6fUsD1WO-10" value="&lt;div&gt;No&lt;/div&gt;" style="text;html=1;align=center;verticalAlign=middle;resizable=0;points=[];autosize=1;strokeColor=none;fillColor=none;" vertex="1" parent="1">
          <mxGeometry x="480" y="348" width="40" height="30" as="geometry" />
        </mxCell>
        <mxCell id="yP08N5uRldZZ6fUsD1WO-11" value="elif num &amp;lt; 0" style="rhombus;whiteSpace=wrap;html=1;" vertex="1" parent="1">
          <mxGeometry x="490" y="500" width="130" height="120" as="geometry" />
        </mxCell>
        <mxCell id="yP08N5uRldZZ6fUsD1WO-12" value="" style="edgeStyle=segmentEdgeStyle;endArrow=classic;html=1;curved=0;rounded=0;endSize=8;startSize=8;exitX=0;exitY=0.5;exitDx=0;exitDy=0;" edge="1" parent="1" source="yP08N5uRldZZ6fUsD1WO-11">
          <mxGeometry width="50" height="50" relative="1" as="geometry">
            <mxPoint x="380" y="730" as="sourcePoint" />
            <mxPoint x="400" y="680" as="targetPoint" />
          </mxGeometry>
        </mxCell>
        <mxCell id="yP08N5uRldZZ6fUsD1WO-13" value="print(number is negative)" style="shape=parallelogram;perimeter=parallelogramPerimeter;whiteSpace=wrap;html=1;fixedSize=1;" vertex="1" parent="1">
          <mxGeometry x="300" y="680" width="180" height="60" as="geometry" />
        </mxCell>
        <mxCell id="yP08N5uRldZZ6fUsD1WO-14" value="" style="edgeStyle=segmentEdgeStyle;endArrow=classic;html=1;curved=0;rounded=0;endSize=8;startSize=8;exitX=1;exitY=0.5;exitDx=0;exitDy=0;" edge="1" parent="1" source="yP08N5uRldZZ6fUsD1WO-11">
          <mxGeometry width="50" height="50" relative="1" as="geometry">
            <mxPoint x="660" y="690" as="sourcePoint" />
            <mxPoint x="710" y="680" as="targetPoint" />
          </mxGeometry>
        </mxCell>
        <mxCell id="yP08N5uRldZZ6fUsD1WO-15" value="print(num == 0)" style="shape=parallelogram;perimeter=parallelogramPerimeter;whiteSpace=wrap;html=1;fixedSize=1;" vertex="1" parent="1">
          <mxGeometry x="610" y="680" width="180" height="60" as="geometry" />
        </mxCell>
        <mxCell id="yP08N5uRldZZ6fUsD1WO-16" value="Yes" style="text;html=1;align=center;verticalAlign=middle;resizable=0;points=[];autosize=1;strokeColor=none;fillColor=none;" vertex="1" parent="1">
          <mxGeometry x="410" y="530" width="40" height="30" as="geometry" />
        </mxCell>
        <mxCell id="yP08N5uRldZZ6fUsD1WO-17" value="No (else)" style="text;html=1;align=center;verticalAlign=middle;resizable=0;points=[];autosize=1;strokeColor=none;fillColor=none;" vertex="1" parent="1">
          <mxGeometry x="655" y="530" width="70" height="30" as="geometry" />
        </mxCell>
        <mxCell id="yP08N5uRldZZ6fUsD1WO-21" value="" style="edgeStyle=elbowEdgeStyle;elbow=horizontal;endArrow=classic;html=1;curved=0;rounded=0;endSize=8;startSize=8;" edge="1" parent="1">
          <mxGeometry width="50" height="50" relative="1" as="geometry">
            <mxPoint x="200" y="580" as="sourcePoint" />
            <mxPoint x="310" y="910" as="targetPoint" />
            <Array as="points">
              <mxPoint x="200" y="670" />
            </Array>
          </mxGeometry>
        </mxCell>
        <mxCell id="yP08N5uRldZZ6fUsD1WO-22" value="" style="endArrow=classic;html=1;rounded=0;exitX=0.5;exitY=1;exitDx=0;exitDy=0;" edge="1" parent="1" source="yP08N5uRldZZ6fUsD1WO-13">
          <mxGeometry width="50" height="50" relative="1" as="geometry">
            <mxPoint x="390" y="830" as="sourcePoint" />
            <mxPoint x="390" y="880" as="targetPoint" />
          </mxGeometry>
        </mxCell>
        <mxCell id="yP08N5uRldZZ6fUsD1WO-26" value="" style="edgeStyle=segmentEdgeStyle;endArrow=classic;html=1;curved=0;rounded=0;endSize=8;startSize=8;" edge="1" parent="1">
          <mxGeometry width="50" height="50" relative="1" as="geometry">
            <mxPoint x="720" y="950" as="sourcePoint" />
            <mxPoint x="505" y="950" as="targetPoint" />
            <Array as="points">
              <mxPoint x="575" y="950" />
              <mxPoint x="575" y="950" />
            </Array>
          </mxGeometry>
        </mxCell>
        <mxCell id="yP08N5uRldZZ6fUsD1WO-27" value="" style="line;strokeWidth=2;direction=south;html=1;" vertex="1" parent="1">
          <mxGeometry x="710" y="740" width="10" height="210" as="geometry" />
        </mxCell>
        <mxCell id="yP08N5uRldZZ6fUsD1WO-28" value="Stop" style="ellipse;whiteSpace=wrap;html=1;" vertex="1" parent="1">
          <mxGeometry x="300" y="880" width="200" height="170" as="geometry" />
        </mxCell>
      </root>
    </mxGraphModel>
  </diagram>
</mxfile>
